<svg id="Layer_1" data-name="Layer 1" xmlns="http://www.w3.org/2000/svg" viewBox="0 0 768 768"><defs><style>.cls-1{fill:#fff;}.cls-2{fill:#666;}.cls-3{font-size:143.12px;font-family:FiraCode-Bold, Fira Code;font-weight:700;letter-spacing:-0.1em;}.cls-3,.cls-7{fill:#f66;}.cls-4{fill:#999;}.cls-5{fill:#6f6;}.cls-6{fill:#fff766;}.cls-8{fill:none;stroke:#666;stroke-miterlimit:10;stroke-width:30px;}</style></defs><rect class="cls-1" x="84.5" y="15" width="599" height="738" rx="86.75"/><path class="cls-2" d="M596.75,30a71.84,71.84,0,0,1,71.75,71.75v564.5A71.84,71.84,0,0,1,596.75,738H171.25A71.84,71.84,0,0,1,99.5,666.25V101.75A71.84,71.84,0,0,1,171.25,30h425.5m0-30H171.25A101.76,101.76,0,0,0,69.5,101.75v564.5A101.75,101.75,0,0,0,171.25,768h425.5A101.74,101.74,0,0,0,698.5,666.25V101.75A101.75,101.75,0,0,0,596.75,0Z"/><text class="cls-3" transform="translate(278.75 439.31) scale(0.98 1)">S#*@!</text><path class="cls-4" d="M85,119.62V99a84.52,84.52,0,0,1,84.42-84.42H598.58A84.52,84.52,0,0,1,683,99v20.58Z"/><path class="cls-2" d="M598.58,29.62A69.5,69.5,0,0,1,668,99v5.58H100V99a69.5,69.5,0,0,1,69.42-69.42H598.58m0-30H169.42A99.42,99.42,0,0,0,70,99v35.58H698V99A99.42,99.42,0,0,0,598.58-.38Z"/><circle class="cls-5" cx="474" cy="67.13" r="22"/><path class="cls-2" d="M474,51.12a16,16,0,1,1-16,16,16,16,0,0,1,16-16m0-12a28,28,0,1,0,28,28,28,28,0,0,0-28-28Z"/><circle class="cls-6" cx="542" cy="67.13" r="22"/><path class="cls-2" d="M542,51.12a16,16,0,1,1-16,16,16,16,0,0,1,16-16m0-12a28,28,0,1,0,28,28,28,28,0,0,0-28-28Z"/><circle class="cls-7" cx="610" cy="67.13" r="22"/><path class="cls-2" d="M610,51.12a16,16,0,1,1-16,16,16,16,0,0,1,16-16m0-12a28,28,0,1,0,28,28,28,28,0,0,0-28-28Z"/><line class="cls-8" x1="256" y1="203" x2="638" y2="203"/><line class="cls-8" x1="129" y1="298.4" x2="638" y2="298.4"/><line class="cls-8" x1="130" y1="393.8" x2="256" y2="393.8"/><line class="cls-8" x1="130" y1="489.2" x2="639" y2="489.2"/><line class="cls-8" x1="130" y1="584.6" x2="639" y2="584.6"/><line class="cls-8" x1="130" y1="666" x2="383" y2="666"/><rect class="cls-1" x="169" y="48" width="227" height="40" rx="15.5"/><path class="cls-2" d="M380.5,54a9.51,9.51,0,0,1,9.5,9.5v9a9.51,9.51,0,0,1-9.5,9.5h-196a9.51,9.51,0,0,1-9.5-9.5v-9a9.51,9.51,0,0,1,9.5-9.5h196m0-12h-196A21.51,21.51,0,0,0,163,63.5v9A21.51,21.51,0,0,0,184.5,94h196A21.51,21.51,0,0,0,402,72.5v-9A21.51,21.51,0,0,0,380.5,42Z"/></svg>